<svg width="28" height="31" viewBox="0 0 28 31" fill="none" xmlns="http://www.w3.org/2000/svg">
<path d="M16.2529 17.4336H7.31738L5.31055 23H2.41016L10.5547 1.67188H13.0156L21.1748 23H18.2891L16.2529 17.4336ZM8.16699 15.1191H15.418L11.7852 5.14355L8.16699 15.1191ZM26.4189 7.15039V24.8311C26.4189 27.8779 25.0371 29.4014 22.2734 29.4014C21.6777 29.4014 21.126 29.3135 20.6182 29.1377V26.9697C20.9307 27.0479 21.3408 27.0869 21.8486 27.0869C22.4541 27.0869 22.9131 26.9209 23.2256 26.5889C23.5479 26.2666 23.709 25.7002 23.709 24.8896V7.15039H26.4189ZM23.4307 2.94629C23.4307 2.5166 23.5625 2.15039 23.8262 1.84766C24.0996 1.53516 24.4951 1.37891 25.0127 1.37891C25.54 1.37891 25.9404 1.53027 26.2139 1.83301C26.4873 2.13574 26.624 2.50684 26.624 2.94629C26.624 3.38574 26.4873 3.75195 26.2139 4.04492C25.9404 4.33789 25.54 4.48438 25.0127 4.48438C24.4854 4.48438 24.0898 4.33789 23.8262 4.04492C23.5625 3.75195 23.4307 3.38574 23.4307 2.94629Z" fill="#556CFB"/>
<path d="M16.2529 17.4336L17.1921 17.0901L16.9519 16.4336H16.2529V17.4336ZM7.31738 17.4336V16.4336H6.6149L6.37665 17.0944L7.31738 17.4336ZM5.31055 23V24H6.01303L6.25128 23.3392L5.31055 23ZM2.41016 23L1.47595 22.6433L0.957857 24H2.41016V23ZM10.5547 1.67188V0.671875H9.86612L9.62048 1.31513L10.5547 1.67188ZM13.0156 1.67188L13.9496 1.31457L13.7037 0.671875H13.0156V1.67188ZM21.1748 23V24H22.628L22.1088 22.6427L21.1748 23ZM18.2891 23L17.3499 23.3435L17.5901 24H18.2891V23ZM8.16699 15.1191L7.22692 14.7782L6.74055 16.1191H8.16699V15.1191ZM15.418 15.1191V16.1191H16.8464L16.3576 14.777L15.418 15.1191ZM11.7852 5.14355L12.7248 4.80137L11.7833 2.21596L10.8451 4.80259L11.7852 5.14355ZM16.2529 16.4336H7.31738V18.4336H16.2529V16.4336ZM6.37665 17.0944L4.36982 22.6608L6.25128 23.3392L8.25811 17.7728L6.37665 17.0944ZM5.31055 22H2.41016V24H5.31055V22ZM3.34436 23.3567L11.4889 2.02862L9.62048 1.31513L1.47595 22.6433L3.34436 23.3567ZM10.5547 2.67188H13.0156V0.671875H10.5547V2.67188ZM12.0816 2.02918L20.2408 23.3573L22.1088 22.6427L13.9496 1.31457L12.0816 2.02918ZM21.1748 22H18.2891V24H21.1748V22ZM19.2282 22.6565L17.1921 17.0901L15.3138 17.7771L17.3499 23.3435L19.2282 22.6565ZM8.16699 16.1191H15.418V14.1191H8.16699V16.1191ZM16.3576 14.777L12.7248 4.80137L10.8455 5.48574L14.4783 15.4613L16.3576 14.777ZM10.8451 4.80259L7.22692 14.7782L9.10707 15.4601L12.7252 5.48452L10.8451 4.80259ZM26.4189 7.15039H27.4189V6.15039H26.4189V7.15039ZM20.6182 29.1377H19.6182V29.8498L20.2911 30.0827L20.6182 29.1377ZM20.6182 26.9697L20.8607 25.9996L19.6182 25.6889V26.9697H20.6182ZM23.2256 26.5889L22.5185 25.8818L22.5078 25.8925L22.4974 25.9035L23.2256 26.5889ZM23.709 7.15039V6.15039H22.709V7.15039H23.709ZM23.8262 1.84766L23.0736 1.18915L23.0721 1.19088L23.8262 1.84766ZM25.4189 7.15039V24.8311H27.4189V7.15039H25.4189ZM25.4189 24.8311C25.4189 26.2232 25.1012 27.0806 24.6419 27.5869C24.1994 28.0748 23.4746 28.4014 22.2734 28.4014V30.4014C23.8359 30.4014 25.1839 29.9662 26.1233 28.9306C27.0458 27.9136 27.4189 26.4858 27.4189 24.8311H25.4189ZM22.2734 28.4014C21.7771 28.4014 21.3371 28.3283 20.9453 28.1927L20.2911 30.0827C20.9149 30.2986 21.5784 30.4014 22.2734 30.4014V28.4014ZM21.6182 29.1377V26.9697H19.6182V29.1377H21.6182ZM20.3756 27.9399C20.7993 28.0458 21.3002 28.0869 21.8486 28.0869V26.0869C21.3815 26.0869 21.062 26.0499 20.8607 25.9996L20.3756 27.9399ZM21.8486 28.0869C22.6354 28.0869 23.3961 27.8668 23.9538 27.2742L22.4974 25.9035C22.4301 25.975 22.2728 26.0869 21.8486 26.0869V28.0869ZM23.9327 27.296C24.5437 26.685 24.709 25.7758 24.709 24.8896H22.709C22.709 25.6246 22.552 25.8482 22.5185 25.8818L23.9327 27.296ZM24.709 24.8896V7.15039H22.709V24.8896H24.709ZM23.709 8.15039H26.4189V6.15039H23.709V8.15039ZM24.4307 2.94629C24.4307 2.73963 24.4868 2.61169 24.5803 2.50444L23.0721 1.19088C22.6382 1.68909 22.4307 2.29358 22.4307 2.94629H24.4307ZM24.5787 2.50616C24.617 2.46246 24.7067 2.37891 25.0127 2.37891V0.378906C24.2835 0.378906 23.5822 0.607852 23.0736 1.18915L24.5787 2.50616ZM25.0127 2.37891C25.3451 2.37891 25.4398 2.46788 25.4718 2.50329L26.956 1.16272C26.4411 0.592667 25.735 0.378906 25.0127 0.378906V2.37891ZM25.4718 2.50329C25.5658 2.60736 25.624 2.73367 25.624 2.94629H27.624C27.624 2.28 27.4089 1.66413 26.956 1.16272L25.4718 2.50329ZM25.624 2.94629C25.624 3.15907 25.5661 3.27339 25.4828 3.3626L26.9449 4.72724C27.4085 4.23052 27.624 3.61242 27.624 2.94629H25.624ZM25.4828 3.3626C25.4532 3.39434 25.3547 3.48438 25.0127 3.48438V5.48438C25.7253 5.48438 26.4277 5.28145 26.9449 4.72724L25.4828 3.3626ZM25.0127 3.48438C24.6683 3.48438 24.5853 3.39355 24.5695 3.37596L23.0829 4.71389C23.5944 5.28223 24.3024 5.48438 25.0127 5.48438V3.48438ZM24.5695 3.37596C24.4904 3.28815 24.4307 3.16929 24.4307 2.94629H22.4307C22.4307 3.6022 22.6346 4.21576 23.0829 4.71389L24.5695 3.37596Z" fill="#556CFB"/>
</svg>
